<svg xmlns="http://www.w3.org/2000/svg" xmlns:xlink="http://www.w3.org/1999/xlink" id="svg1436" width="697.59998" height="193.8" fill="none" version="1.1" viewBox="0 0 697.59998 193.80001">
  <g id="CatEarR" stroke="#9a8077" transform="translate(2.5 2.5)">
    <path id="line1050" stroke-width="3" d="m503.40799 24.634701 16.88303-6.1299"/>
    <path id="line1052" stroke-width="3" d="M493.311 37.598598 523.27399 26.7202"/>
    <path id="line1054" stroke-width="3" d="m487.439 49.063999 38.81698-14.128097"/>
    <path id="line1056" stroke-width="3" d="M485.60999 58.991199 529.23901 43.1507"/>
    <path id="line1058" stroke-width="3" d="M490.80899 66.401901 532.22198 51.3661"/>
    <path id="line1060" stroke-width="3" d="m501.43701 71.841301 33.76801-12.259899"/>
    <path id="path1062" fill="#e0c8c0" fill-opacity=".8" stroke-linejoin="round" stroke-width="6" d="M508.732 73.1418c-10.851-1.3986-20.778-7.826-23.957-14.2653-3.179-6.4393 25.511-47.2987 31.408-46.5386 5.897.7601 22.488 51.3178 17.518 56.0032-4.97 4.6854-14.117 6.1993-24.969 4.8007z"/>
  </g>
  <g id="CatEarL" stroke="#9a8077" transform="translate(2.5 2.5)">
    <path id="line1064" stroke-width="3" d="M441.50699 28.592899 455.35101 17.1486"/>
    <path id="line1066" stroke-width="3" d="m436.35101 44.194599 24.568-20.309599"/>
    <path id="line1068" stroke-width="3" d="M434.67001 56.966202 466.487 30.622101"/>
    <path id="line1070" stroke-width="3" d="m436.28101 66.931198 35.776-29.573498"/>
    <path id="line1072" stroke-width="3" d="M443.66699 72.165298 477.625 44.094002"/>
    <path id="line1074" stroke-width="3" d="m455.505 73.7192 27.689-22.888698"/>
    <path id="path1076" fill="#e0c8c0" fill-opacity=".8" stroke-linejoin="round" stroke-width="6" d="M462.813 72.4941c-10.69 2.327-22.199-.3931-27.356-5.3906-5.157-4.9976 8.143-53.1192 13.953-54.3838 2.11016-.459332 7.75511 4.794864 13.93997 11.964333C474.19418 37.254602 486.69819 55.713157 484.719 59.5864c-3.107 6.0824-11.215 10.5806-21.906 12.9077z"/>
  </g>
  <g id="g3995" transform="translate(2.5 2.5)">
    <g id="g6776" mask="url(#fill_mask)">
      <path id="letter_L" fill="url(#paint1_linear_22_811)" d="M189.085 0v186.182H144.63V0Z" style="fill:url(#paint1_linear_22_811)"/>
      <path id="letter_I" fill="url(#paint2_linear_22_811)" d="M212.26 186.182V58.0921h44.455V186.182Zm22.161-143.673c-6.242 0-11.606-2.0606-16.091-6.1818-4.485-4.1819-6.727-9.2122-6.727-15.0909 0-5.8182 2.242-10.7879 6.727-14.90913 4.485-4.18182 9.849-6.2727348 16.091-6.2727348 6.303 0 11.667 2.0909148 16.091 6.2727348 4.485 4.12123 6.727 9.09093 6.727 14.90913 0 5.8787-2.242 10.909-6.727 15.0909-4.424 4.1212-9.788 6.1818-16.091 6.1818z" style="fill:url(#paint2_linear_22_811)"/>
      <path id="letter_S" fill="url(#paint3_linear_22_811)" d="m401.799 89.1818-40.818 1.0909c-.424-2.9091-1.576-5.4848-3.455-7.7273-1.878-2.303-4.333-4.0909-7.363-5.3636-2.97-1.3333-6.425-2-10.364-2-5.151 0-9.545 1.0303-13.182 3.0909-3.575 2.0606-5.333 4.8485-5.272 8.3637-.061 2.7272 1.03 5.0909 3.272 7.0909 2.303 2 6.394 3.606 12.273 4.8181l26.909 5.0906c13.939 2.667 24.303 7.091 31.091 13.273 6.848 6.182 10.303 14.364 10.364 24.546-.061 9.575-2.909 17.909-8.546 25-5.576 7.091-13.212 12.606-22.909 16.545-9.697 3.879-20.788 5.818-33.273 5.818-19.939 0-35.666-4.091-47.181-12.272-11.455-8.243-18-19.273-19.637-33.091l43.909-1.091c.97 5.091 3.485 8.969 7.546 11.636 4.06 2.667 9.242 4 15.545 4 5.697 0 10.334-1.061 13.909-3.182 3.576-2.121 5.394-4.939 5.455-8.454-.061-3.152-1.455-5.667-4.182-7.546-2.727-1.939-7-3.454-12.818-4.545l-24.364-4.637c-14-2.545-24.424-7.242-31.273-14.091-6.848-6.909-10.242-15.6965-10.181-26.3632-.061-9.3333 2.424-17.303 7.454-23.9091 5.03-6.6666 12.182-11.7576 21.455-15.2727 9.272-3.5152 20.212-5.2727 32.818-5.2727 18.909 0 33.818 3.9697 44.727 11.9091 10.909 7.8788 16.94 18.7272 18.091 32.5454z" style="fill:url(#paint3_linear_22_811)"/>
      <path id="letter_A" fill="url(#paint4_linear_22_811)" d="M461.384 188.546c-8.909 0-16.819-1.485-23.728-4.455-6.848-3.03-12.272-7.576-16.272-13.636-3.94-6.122-5.909-13.788-5.909-23 0-7.758 1.363-14.303 4.09-19.637 2.728-5.333 6.485-9.666 11.273-13 4.788-3.333 10.303-5.848 16.546-7.545 6.242-1.758 12.909-2.94 20-3.546 7.939-.727 14.333-1.485 19.181-2.272 4.849-.849 8.364-2.0308 10.546-3.5459 2.242-1.5758 3.364-3.7879 3.364-6.6364v-.4545c0-4.6667-1.607-8.2728-4.819-10.8182-3.212-2.5455-7.545-3.8182-13-3.8182-5.878 0-10.606 1.2727-14.181 3.8182-3.576 2.5454-5.849 6.0606-6.819 10.5454l-41-1.4545c1.212-8.4848 4.334-16.0606 9.364-22.7273 5.091-6.7272 12.061-12 20.909-15.8182 8.909-3.8787 19.606-5.8181 32.091-5.8181 8.909 0 17.121 1.0606 24.636 3.1818C515.172 49.9697 521.717 53 527.293 57c5.575 3.9394 9.879 8.7879 12.909 14.5454 3.091 5.7576 4.636 12.3334 4.636 19.7273v94.9093H503.02v-19.455h-1.091c-2.485 4.728-5.667 8.728-9.545 12-3.819 3.273-8.334 5.728-13.546 7.364-5.151 1.636-10.97 2.455-17.454 2.455zm13.727-29.091c4.788 0 9.091-.97 12.909-2.909 3.879-1.94 6.97-4.607 9.273-8 2.303-3.455 3.454-7.455 3.454-12v-13.273c-1.272.666-2.818 1.272-4.636 1.818-1.758.545-3.697 1.061-5.818 1.545-2.121.485-4.303.909-6.546 1.273-2.242.364-4.394.697-6.454 1-4.182.667-7.758 1.697-10.728 3.091-2.909 1.394-5.151 3.212-6.727 5.455-1.515 2.181-2.273 4.787-2.273 7.818 0 4.606 1.637 8.121 4.91 10.545 3.333 2.424 7.545 3.637 12.636 3.637z" style="fill:url(#paint4_linear_22_811)"/>
      <path id="letter_N" fill="url(#paint5_linear_22_811)" d="M602.395 106.545v79.637H557.94V46.5454h42.273v25.6364h1.545c3.091-8.5454 8.364-15.2424 15.818-20.0909 7.455-4.9091 16.334-7.3636 26.637-7.3636 9.818 0 18.333 2.2121 25.545 6.6363 7.273 4.3637 12.909 10.4849 16.909 18.3637 4.061 7.8181 6.061 16.9697 6 27.4545v89.0002h-44.454v-80.273c.06-7.7575-1.909-13.8181-5.909-18.1817-3.94-4.3637-9.425-6.5455-16.455-6.5455-4.667 0-8.788 1.0303-12.364 3.0909-3.515 2-6.242 4.8788-8.181 8.6364-1.879 3.7576-2.849 8.3029-2.909 13.6359z" style="fill:url(#paint5_linear_22_811)"/>
      <path id="letter_F" fill="url(#paint0_linear_22_811)" d="M0 186.182V0h127.091v36.5454H45v38.1819h74v36.6367H45v74.818z" style="fill:url(#linearGradient12868)"/>
    </g>
  </g>
  <g id="g4003" transform="translate(2.5 2.5)">
    <path id="letter_F_outline" fill="url(#paint0_linear_22_811)" d="M0 186.182V0h127.091v36.5454H45v38.181902h74V111.364H45v74.818z" style="fill:none;stroke:url(#linearGradient1359);stroke-width:5;stroke-linecap:round;stroke-linejoin:round;stroke-miterlimit:4;stroke-opacity:1"/>
    <path id="letter_L_outline" fill="url(#paint1_linear_22_811)" d="M189.085 0V186.182H144.63V0Z" style="fill:none;stroke:url(#linearGradient1361);stroke-width:5;stroke-linecap:round;stroke-linejoin:round;stroke-miterlimit:4;stroke-opacity:1"/>
    <path id="letter_I_outline" fill="url(#paint2_linear_22_811)" d="M212.26 186.182V58.092102h44.455V186.182Zm22.161-143.673c-6.242 0-11.606-2.0606-16.091-6.1818-4.485-4.1819-6.727-9.2122-6.727-15.0909 0-5.8182 2.242-10.7879 6.727-14.9091299 4.485-4.18182 9.849-6.2727351 16.091-6.2727351 6.303 0 11.667 2.0909151 16.091 6.2727351C254.997 10.4484 257.239 15.4181 257.239 21.2363c0 5.8787-2.242 10.909-6.727 15.0909-4.424 4.1212-9.788 6.1818-16.091 6.1818z" style="fill:none;stroke:url(#linearGradient1363);stroke-width:5;stroke-linecap:round;stroke-linejoin:round;stroke-miterlimit:4;stroke-opacity:1"/>
    <path id="letter_S_outline" fill="url(#paint3_linear_22_811)" d="m401.799 89.181798-40.818 1.0909c-.424-2.9091-1.576-5.4848-3.455-7.7273-1.878-2.303-4.333-4.0909-7.363-5.363596-2.97-1.3333-6.425-2-10.364-2-5.151 0-9.545 1.0303-13.182 3.090896-3.575 2.0606-5.333 4.8485-5.272 8.3637-.061 2.7272 1.03 5.0909 3.272 7.0909 2.303 2 6.394 3.606 12.273 4.8181l26.909 5.090602c13.939 2.667 24.303 7.091 31.091 13.273 6.848 6.182 10.303 14.364 10.364 24.546-.061 9.575-2.909 17.909-8.546 25-5.576 7.091-13.212 12.606-22.909 16.545-9.697 3.879-20.788 5.818-33.273 5.818-19.939 0-35.666-4.091-47.181-12.272-11.455-8.243-18-19.273-19.637-33.091l43.909-1.091c.97 5.091 3.485 8.969 7.546 11.636 4.06 2.667 9.242 4 15.545 4 5.697 0 10.334-1.061 13.909-3.182 3.576-2.121 5.394-4.939 5.455-8.454-.061-3.152-1.455-5.667-4.182-7.546-2.727-1.939-7-3.454-12.818-4.545l-24.364-4.637c-14-2.545-24.424-7.242-31.273-14.091-6.848-6.909-10.242-15.696502-10.181-26.363202-.061-9.3333 2.424-17.302996 7.454-23.909096 5.03-6.6666 12.182-11.7576 21.455-15.272702 9.272-3.5152 20.212-5.2727 32.818-5.2727 18.909 0 33.818 3.9697 44.727 11.909102 10.909 7.8788 16.94 18.7272 18.091 32.545396z" style="fill:none;stroke:url(#linearGradient1365);stroke-width:5;stroke-linecap:round;stroke-linejoin:round;stroke-miterlimit:4;stroke-opacity:1"/>
    <path id="letter_A_outline" fill="url(#paint4_linear_22_811)" d="M461.384 188.546c-8.909 0-16.819-1.485-23.728-4.455-6.848-3.03-12.272-7.576-16.272-13.636-3.94-6.122-5.909-13.788-5.909-23 0-7.758 1.363-14.303 4.09-19.637 2.728-5.333 6.485-9.666 11.273-13 4.788-3.333 10.303-5.848 16.546-7.545 6.242-1.758 12.909-2.94 20-3.546 7.939-.727 14.333-1.485 19.181-2.272 4.849-.849 8.364-2.030802 10.546-3.545902 2.242-1.5758 3.364-3.7879 3.364-6.6364v-.4545c0-4.6667-1.607-8.2728-4.819-10.8182-3.212-2.545496-7.545-3.818196-13-3.818196-5.878 0-10.606 1.2727-14.181 3.818196-3.576 2.5454-5.849 6.0606-6.819 10.5454l-41-1.4545c1.212-8.4848 4.334-16.060596 9.364-22.727296 5.091-6.7272 12.061-12 20.909-15.818202 8.909-3.8787 19.606-5.8181 32.091-5.8181 8.909 0 17.121 1.0606 24.636 3.1818 7.516 2.0606 14.061 5.090902 19.637 9.090902 5.575 3.9394 9.879 8.7879 12.909 14.5454 3.091 5.7576 4.636 12.333396 4.636 19.727296V186.182H503.02v-19.455h-1.091c-2.485 4.728-5.667 8.728-9.545 12-3.819 3.273-8.334 5.728-13.546 7.364-5.151 1.636-10.97 2.455-17.454 2.455zm13.727-29.091c4.788 0 9.091-.97 12.909-2.909 3.879-1.94 6.97-4.607 9.273-8 2.303-3.455 3.454-7.455 3.454-12v-13.273c-1.272.666-2.818 1.272-4.636 1.818-1.758.545-3.697 1.061-5.818 1.545-2.121.485-4.303.909-6.546 1.273-2.242.364-4.394.697-6.454 1-4.182.667-7.758 1.697-10.728 3.091-2.909 1.394-5.151 3.212-6.727 5.455-1.515 2.181-2.273 4.787-2.273 7.818 0 4.606 1.637 8.121 4.91 10.545 3.333 2.424 7.545 3.637 12.636 3.637z" style="fill:none;stroke:url(#linearGradient1367);stroke-width:5;stroke-linecap:round;stroke-linejoin:round;stroke-miterlimit:4;stroke-opacity:1"/>
    <path id="letter_N_outline" fill="url(#paint5_linear_22_811)" d="M602.395 106.545v79.637H557.94V46.5454h42.273v25.636402h1.545c3.091-8.5454 8.364-15.2424 15.818-20.090902 7.455-4.9091 16.334-7.3636 26.637-7.3636 9.818 0 18.333 2.2121 25.545 6.6363 7.273 4.363702 12.909 10.484902 16.909 18.363702 4.061 7.8181 6.061 16.969696 6 27.454496V186.182h-44.454v-80.273c.06-7.757502-1.909-13.818102-5.909-18.181702-3.94-4.3637-9.425-6.5455-16.455-6.5455-4.667 0-8.788 1.0303-12.364 3.0909-3.515 2-6.242 4.8788-8.181 8.6364-1.879 3.7576-2.849 8.302902-2.909 13.635902z" style="fill:none;stroke:url(#linearGradient1369);stroke-width:5;stroke-linecap:round;stroke-linejoin:round;stroke-miterlimit:4;stroke-opacity:1"/>
  </g>
  <mask id="mask0_22_811" width="693" height="189" x="0" y="0" maskUnits="userSpaceOnUse">
    <path id="path1090" fill="url(#paint6_linear_22_811)" d="M0 186.182V0h127.091v36.5454H45v38.1819h74v36.6367H45v74.818z"/>
    <path id="path1092" fill="url(#paint7_linear_22_811)" d="M189.085 0v186.182H144.63V0Z"/>
    <path id="path1094" fill="url(#paint8_linear_22_811)" d="M212.26 186.182V58.0921h44.455V186.182Zm22.161-143.673c-6.242 0-11.606-2.0606-16.091-6.1818-4.485-4.1819-6.727-9.2122-6.727-15.0909 0-5.8182 2.242-10.7879 6.727-14.90913 4.485-4.18182 9.849-6.2727348 16.091-6.2727348 6.303 0 11.667 2.0909148 16.091 6.2727348 4.485 4.12123 6.727 9.09093 6.727 14.90913 0 5.8787-2.242 10.909-6.727 15.0909-4.424 4.1212-9.788 6.1818-16.091 6.1818z"/>
    <path id="path1096" fill="url(#paint9_linear_22_811)" d="m401.799 89.1818-40.818 1.0909c-.424-2.9091-1.576-5.4848-3.455-7.7273-1.878-2.303-4.333-4.0909-7.363-5.3636-2.97-1.3333-6.425-2-10.364-2-5.151 0-9.545 1.0303-13.182 3.0909-3.575 2.0606-5.333 4.8485-5.272 8.3637-.061 2.7272 1.03 5.0909 3.272 7.0909 2.303 2 6.394 3.606 12.273 4.8181l26.909 5.0906c13.939 2.667 24.303 7.091 31.091 13.273 6.848 6.182 10.303 14.364 10.364 24.546-.061 9.575-2.909 17.909-8.546 25-5.576 7.091-13.212 12.606-22.909 16.545-9.697 3.879-20.788 5.818-33.273 5.818-19.939 0-35.666-4.091-47.181-12.272-11.455-8.243-18-19.273-19.637-33.091l43.909-1.091c.97 5.091 3.485 8.969 7.546 11.636 4.06 2.667 9.242 4 15.545 4 5.697 0 10.334-1.061 13.909-3.182 3.576-2.121 5.394-4.939 5.455-8.454-.061-3.152-1.455-5.667-4.182-7.546-2.727-1.939-7-3.454-12.818-4.545l-24.364-4.637c-14-2.545-24.424-7.242-31.273-14.091-6.848-6.909-10.242-15.6965-10.181-26.3632-.061-9.3333 2.424-17.303 7.454-23.9091 5.03-6.6666 12.182-11.7576 21.455-15.2727 9.272-3.5152 20.212-5.2727 32.818-5.2727 18.909 0 33.818 3.9697 44.727 11.9091 10.909 7.8788 16.94 18.7272 18.091 32.5454z"/>
    <path id="path1098" fill="url(#paint10_linear_22_811)" d="M461.384 188.546c-8.909 0-16.819-1.485-23.728-4.455-6.848-3.03-12.272-7.576-16.272-13.636-3.94-6.122-5.909-13.788-5.909-23 0-7.758 1.363-14.303 4.09-19.637 2.728-5.333 6.485-9.666 11.273-13 4.788-3.333 10.303-5.848 16.546-7.545 6.242-1.758 12.909-2.94 20-3.546 7.939-.727 14.333-1.485 19.181-2.272 4.849-.849 8.364-2.0308 10.546-3.5459 2.242-1.5758 3.364-3.7879 3.364-6.6364v-.4545c0-4.6667-1.607-8.2728-4.819-10.8182-3.212-2.5455-7.545-3.8182-13-3.8182-5.878 0-10.606 1.2727-14.181 3.8182-3.576 2.5454-5.849 6.0606-6.819 10.5454l-41-1.4545c1.212-8.4848 4.334-16.0606 9.364-22.7273 5.091-6.7272 12.061-12 20.909-15.8182 8.909-3.8787 19.606-5.8181 32.091-5.8181 8.909 0 17.121 1.0606 24.636 3.1818C515.172 49.9697 521.717 53 527.293 57c5.575 3.9394 9.879 8.7879 12.909 14.5454 3.091 5.7576 4.636 12.3334 4.636 19.7273v94.9093H503.02v-19.455h-1.091c-2.485 4.728-5.667 8.728-9.545 12-3.819 3.273-8.334 5.728-13.546 7.364-5.151 1.636-10.97 2.455-17.454 2.455zm13.727-29.091c4.788 0 9.091-.97 12.909-2.909 3.879-1.94 6.97-4.607 9.273-8 2.303-3.455 3.454-7.455 3.454-12v-13.273c-1.272.666-2.818 1.272-4.636 1.818-1.758.545-3.697 1.061-5.818 1.545-2.121.485-4.303.909-6.546 1.273-2.242.364-4.394.697-6.454 1-4.182.667-7.758 1.697-10.728 3.091-2.909 1.394-5.151 3.212-6.727 5.455-1.515 2.181-2.273 4.787-2.273 7.818 0 4.606 1.637 8.121 4.91 10.545 3.333 2.424 7.545 3.637 12.636 3.637z"/>
    <path id="path1100" fill="url(#paint11_linear_22_811)" d="M602.395 106.545v79.637H557.94V46.5454h42.273v25.6364h1.545c3.091-8.5454 8.364-15.2424 15.818-20.0909 7.455-4.9091 16.334-7.3636 26.637-7.3636 9.818 0 18.333 2.2121 25.545 6.6363 7.273 4.3637 12.909 10.4849 16.909 18.3637 4.061 7.8181 6.061 16.9697 6 27.4545v89.0002h-44.454v-80.273c.06-7.7575-1.909-13.8181-5.909-18.1817-3.94-4.3637-9.425-6.5455-16.455-6.5455-4.667 0-8.788 1.0303-12.364 3.0909-3.515 2-6.242 4.8788-8.181 8.6364-1.879 3.7576-2.849 8.3029-2.909 13.6359z"/>
  </mask>
  <g id="g1337" mask="url(#mask0_22_811)" transform="translate(2.5 2.5)">
    <g id="FallingStar">
      <path id="Star3" fill="url(#paint14_linear_22_811)" d="M365.085 162.417c.165-.683.964-.988 1.541-.588l4.737 3.28c.189.131.417.193.646.175l5.744-.446c.701-.055 1.237.611 1.035 1.284l-1.656 5.518c-.066.22-.054.457.034.669l2.2 5.325c.268.649-.2 1.365-.902 1.381l-5.76.13c-.23.006-.451.09-.626.239l-4.384 3.738c-.535.455-1.36.232-1.592-.431l-1.904-5.437c-.076-.218-.225-.402-.421-.522l-4.909-3.015c-.599-.368-.641-1.222-.082-1.648l4.583-3.49c.183-.14.312-.338.366-.561z" opacity=".75" style="fill:url(#paint14_linear_22_811)"/>
      <path id="Star2" fill="url(#paint13_linear_22_811)" d="M352.763 154.494c.587-.385 1.379-.061 1.526.626l1.21 5.633c.048.224.173.426.352.57l4.495 3.604c.548.439.484 1.292-.124 1.645l-4.983 2.891c-.199.116-.352.296-.434.511l-2.038 5.388c-.249.657-1.08.86-1.603.391l-4.29-3.846c-.171-.153-.39-.243-.62-.254l-5.754-.274c-.702-.034-1.151-.761-.867-1.404l2.332-5.268c.093-.21.111-.446.05-.668l-1.517-5.557c-.185-.678.368-1.33 1.067-1.259l5.73.59c.229.024.459-.032.651-.158z" opacity=".75" style="fill:url(#paint13_linear_22_811)"/>
      <path id="Star1" fill="url(#paint12_linear_22_811)" d="M368.867 140.03c.417-.566 1.271-.537 1.649.055l3.095 4.859c.124.194.31.34.529.412l5.468 1.814c.667.221.904 1.043.457 1.585L376.4 153.2c-.146.178-.227.4-.228.63l-.036 5.761c-.004.703-.712 1.182-1.366.924l-5.36-2.111c-.214-.085-.451-.092-.67-.023l-5.49 1.747c-.669.213-1.344-.313-1.301-1.014l.352-5.75c.014-.23-.052-.457-.186-.644l-3.357-4.681c-.41-.571-.118-1.376.562-1.551l5.577-1.443c.223-.057.419-.19.555-.375z" opacity=".75" style="fill:url(#paint12_linear_22_811)"/>
      <path id="Trail" fill="url(#paint15_linear_22_811)" d="M389.447 149.063 740.154 36.2775l13.55 52.4068-361.897 69.5087Z" style="fill:url(#paint15_linear_22_811)"/>
    </g>
    <g id="Snow" fill="#ffffff" opacity=".4">
      <ellipse id="ellipse1111" cx="8.7836399" cy="14.057" opacity=".8" rx="1.19736" ry="1.07847" transform="rotate(97 8.78364 14.057)"/>
      <ellipse id="ellipse1113" cx="133.116" cy="10.3702" rx="1.4967" ry="1.3480901" transform="rotate(-168 133.116 10.3702)"/>
      <ellipse id="ellipse1115" cx="186.93401" cy="6.6645699" opacity=".71" rx="2.3348601" ry="2.10302" transform="rotate(80 186.934 6.66457)"/>
      <ellipse id="ellipse1117" cx="262.67099" cy="16.6299" opacity=".72" rx="1.51666" ry="1.36606" transform="rotate(85 262.671 16.6299)"/>
      <ellipse id="ellipse1119" cx="295.974" cy="1.13359" opacity=".99" rx="1.8559099" ry="1.67163" transform="rotate(111 295.974 1.13359)"/>
      <ellipse id="ellipse1121" cx="351.759" cy="4.8941102" opacity=".79" rx="1.57653" ry="1.4199899" transform="rotate(-125 351.759 4.89411)"/>
      <ellipse id="ellipse1123" cx="464.509" cy="13.9635" opacity=".91" rx="1.97565" ry="1.77948" transform="rotate(-92 464.509 13.9635)"/>
      <ellipse id="ellipse1125" cx="491.25201" cy="15.7379" opacity=".71" rx="1.4368401" ry="1.29417" transform="rotate(74 491.252 15.7379)"/>
      <ellipse id="ellipse1127" cx="618.43103" cy="16.220699" opacity=".75" rx="1.6164401" ry="1.45594" transform="rotate(-63 618.431 16.2207)"/>
      <ellipse id="ellipse1129" cx="659.57898" cy="18.5425" opacity=".95" rx="1.41688" ry="1.27619" transform="rotate(84 659.579 18.5425)"/>
      <ellipse id="ellipse1131" cx="19.722401" cy="19.129101" opacity=".88" rx="2.3348601" ry="2.10302" transform="rotate(-156 19.7224 19.1291)"/>
      <ellipse id="ellipse1133" cx="122.588" cy="28.3459" opacity=".74" rx="1.75613" ry="1.58176" transform="rotate(41 122.588 28.3459)"/>
      <ellipse id="ellipse1135" cx="142.67999" cy="34.203701" rx="2.17521" ry="1.9592201" transform="rotate(134 142.68 34.2037)"/>
      <ellipse id="ellipse1137" cx="265.07999" cy="24.358299" opacity=".76" rx="1.33706" ry="1.20429" transform="rotate(7 265.08 24.3583)"/>
      <ellipse id="ellipse1139" cx="283.401" cy="21.7162" opacity=".86" rx="1.5565701" ry="1.40201" transform="rotate(13 283.401 21.7162)"/>
      <ellipse id="ellipse1141" cx="355.21301" cy="29.462" opacity=".74" rx="2.2749901" ry="2.0490999" transform="rotate(-98 355.213 29.462)"/>
      <ellipse id="ellipse1143" cx="435.00699" cy="23.4552" opacity=".99" rx="1.45679" ry="1.31214" transform="rotate(-94 435.007 23.4552)"/>
      <ellipse id="ellipse1145" cx="550.30902" cy="32.921001" opacity=".95" rx="2.17521" ry="1.9592201" transform="rotate(-1 550.309 32.921)"/>
      <ellipse id="ellipse1147" cx="620.422" cy="31.959999" opacity=".72" rx="2.3747699" ry="2.1389699" transform="rotate(-61 620.422 31.96)"/>
      <ellipse id="ellipse1149" cx="639.20203" cy="33.532501" opacity=".83" rx="1.19736" ry="1.07847" transform="rotate(66 639.202 33.5325)"/>
      <ellipse id="ellipse1151" cx="21.2729" cy="44.986099" opacity=".71" rx="1.95569" ry="1.7615" transform="rotate(89 21.2729 44.9861)"/>
      <ellipse id="ellipse1153" cx="137.575" cy="41.469799" opacity=".76" rx="1.95569" ry="1.7615" transform="rotate(-148 137.575 41.4698)"/>
      <ellipse id="ellipse1155" cx="188.423" cy="45.5578" opacity=".73" rx="1.41688" ry="1.27619" transform="rotate(-25 188.423 45.5578)"/>
      <ellipse id="ellipse1157" cx="270.52499" cy="40.622398" opacity=".78" rx="1.23728" ry="1.1144201" transform="rotate(61 270.525 40.6224)"/>
      <ellipse id="ellipse1159" cx="305.629" cy="47.081902" opacity=".7" rx="1.97565" ry="1.77948" transform="rotate(-18 305.629 47.0819)"/>
      <ellipse id="ellipse1161" cx="369.85199" cy="47.122601" opacity=".84" rx="1.19736" ry="1.07847" transform="rotate(-75 369.852 47.1226)"/>
      <ellipse id="ellipse1163" cx="423.58099" cy="36.8549" opacity=".94" rx="1.69626" ry="1.52784" transform="rotate(-112 423.581 36.8549)"/>
      <ellipse id="ellipse1165" cx="540.56598" cy="47.689098" opacity=".99" rx="2.0754299" ry="1.86935" transform="rotate(-70 540.566 47.6891)"/>
      <ellipse id="ellipse1167" cx="617.99597" cy="44.404999" opacity=".71" rx="1.6763099" ry="1.50986" transform="rotate(-87 617.996 44.405)"/>
      <ellipse id="ellipse1169" cx="649.49701" cy="43.672298" opacity=".94" rx="1.7361799" ry="1.56378" transform="rotate(-137 649.497 43.6723)"/>
      <ellipse id="ellipse1171" cx="14.8988" cy="56.115002" opacity=".89" rx="1.5565701" ry="1.40201" transform="rotate(-67 14.8988 56.115)"/>
      <ellipse id="ellipse1173" cx="121.144" cy="62.595798" opacity=".75" rx="1.21732" ry="1.09645" transform="rotate(-101 121.144 62.5958)"/>
      <ellipse id="ellipse1175" cx="212.76401" cy="57.772999" opacity=".83" rx="1.6164401" ry="1.45594" transform="rotate(-48 212.764 57.773)"/>
      <ellipse id="ellipse1177" cx="219.243" cy="59.862701" opacity=".87" rx="2.0754299" ry="1.86935" transform="rotate(120 219.243 59.8627)"/>
      <ellipse id="ellipse1179" cx="286.03601" cy="59.703499" opacity=".96" rx="1.816" ry="1.63568" transform="rotate(-112 286.036 59.7035)"/>
      <ellipse id="ellipse1181" cx="405.534" cy="66.740196" opacity=".94" rx="2.3947301" ry="2.15694" transform="rotate(161 405.534 66.7402)"/>
      <ellipse id="ellipse1183" cx="432.32999" cy="74.218002" opacity=".88" rx="1.23728" ry="1.1144201" transform="rotate(166 432.33 74.218)"/>
      <ellipse id="ellipse1185" cx="518.388" cy="72.654198" opacity=".81" rx="1.75613" ry="1.58176" transform="rotate(-125 518.388 72.6542)"/>
      <ellipse id="ellipse1187" cx="578.14203" cy="61.943001" opacity=".82" rx="2.1951699" ry="1.9772" transform="rotate(53 578.142 61.943)"/>
      <ellipse id="ellipse1189" cx="659.888" cy="67.334198" opacity=".86" rx="1.3769701" ry="1.24024" transform="rotate(-158 659.888 67.3342)"/>
      <ellipse id="ellipse1191" cx="9.9172001" cy="91.836998" opacity=".85" rx="2.2550299" ry="2.0311201" transform="rotate(-26 9.9172 91.837)"/>
      <ellipse id="ellipse1193" cx="137.39" cy="74.641098" opacity=".75" rx="2.2550299" ry="2.0311201" transform="rotate(-171 137.39 74.6411)"/>
      <ellipse id="ellipse1195" cx="149.442" cy="95.147003" opacity=".82" rx="1.816" ry="1.63568" transform="rotate(110 149.442 95.147)"/>
      <ellipse id="ellipse1197" cx="218.23199" cy="76.3256" opacity=".89" rx="1.33706" ry="1.20429" transform="rotate(160 218.232 76.3256)"/>
      <ellipse id="ellipse1199" cx="312.38199" cy="91.840302" opacity=".89" rx="1.83596" ry="1.6536601" transform="rotate(-70 312.382 91.8403)"/>
      <ellipse id="ellipse1201" cx="412.93799" cy="91.296898" opacity=".92" rx="2.2749901" ry="2.0490999" transform="rotate(-104 412.938 91.2969)"/>
      <ellipse id="ellipse1203" cx="487.461" cy="82.442596" opacity=".85" rx="1.25723" ry="1.1324" transform="rotate(-109 487.461 82.4426)"/>
      <ellipse id="ellipse1205" cx="539.60199" cy="88.210297" opacity=".91" rx="1.7361799" ry="1.56378" transform="rotate(-92 539.602 88.2103)"/>
      <ellipse id="ellipse1207" cx="596.48102" cy="91.603302" opacity=".81" rx="1.4368401" ry="1.29417" transform="rotate(14 596.481 91.6033)"/>
      <ellipse id="ellipse1209" cx="654.21002" cy="75.675697" opacity=".76" rx="2.0953901" ry="1.8873301" transform="rotate(166 654.21 75.6757)"/>
      <ellipse id="ellipse1211" cx="27.1919" cy="97.8937" opacity=".95" rx="1.6763099" ry="1.50986" transform="rotate(-153 27.1919 97.8937)"/>
      <ellipse id="ellipse1213" cx="77.6203" cy="105.783" opacity=".7" rx="1.3769701" ry="1.24024" transform="rotate(113 77.6203 105.783)"/>
      <ellipse id="ellipse1215" cx="188.355" cy="111.933" opacity=".77" rx="1.47675" ry="1.33012" transform="rotate(-14 188.355 111.933)"/>
      <ellipse id="ellipse1217" cx="234.05701" cy="101.864" opacity=".74" rx="2.29495" ry="2.06707" transform="rotate(26 234.057 101.864)"/>
      <ellipse id="ellipse1219" cx="347.505" cy="100.799" opacity=".97" rx="2.29495" ry="2.06707" transform="rotate(23 347.505 100.799)"/>
      <ellipse id="ellipse1221" cx="368.77899" cy="110.381" opacity=".9" rx="1.3171" ry="1.1863199" transform="rotate(-156 368.779 110.381)"/>
      <ellipse id="ellipse1223" cx="457.21799" cy="111.328" opacity=".79" rx="1.27719" ry="1.15037" transform="rotate(161 457.218 111.328)"/>
      <ellipse id="ellipse1225" cx="546.85999" cy="106.807" opacity=".95" rx="2.05547" ry="1.85138" transform="rotate(-46 546.86 106.807)"/>
      <ellipse id="ellipse1227" cx="585.40503" cy="101.141" opacity=".86" rx="2.3148999" ry="2.0850501" transform="rotate(154 585.405 101.141)"/>
      <ellipse id="ellipse1229" cx="646.95697" cy="105.922" opacity=".75" rx="2.0155599" ry="1.81543" transform="rotate(-172 646.957 105.922)"/>
      <ellipse id="ellipse1231" cx="24.414" cy="132.87801" opacity=".86" rx="2.3747699" ry="2.1389699" transform="rotate(102 24.414 132.878)"/>
      <ellipse id="ellipse1233" cx="79.851997" cy="125.202" opacity=".84" rx="1.3769701" ry="1.24024" transform="rotate(-146 79.852 125.202)"/>
      <ellipse id="ellipse1235" cx="210.52699" cy="126.432" opacity=".85" rx="2.2151201" ry="1.99517" transform="rotate(-53 210.527 126.432)"/>
      <ellipse id="ellipse1237" cx="266.98599" cy="128.756" opacity=".88" rx="1.69626" ry="1.52784" transform="rotate(171 266.986 128.756)"/>
      <ellipse id="ellipse1239" cx="292.38" cy="114.428" opacity=".8" rx="1.9157799" ry="1.7255501" transform="rotate(-128 292.38 114.428)"/>
      <ellipse id="ellipse1241" cx="411.67899" cy="115.471" opacity=".82" rx="1.97565" ry="1.77948" transform="rotate(-150 411.679 115.471)"/>
      <ellipse id="ellipse1243" cx="457.22299" cy="131.605" opacity=".76" rx="1.8559099" ry="1.67163" transform="rotate(-28 457.223 131.605)"/>
      <ellipse id="ellipse1245" cx="531.242" cy="128.427" opacity=".75" rx="1.23728" ry="1.1144201" transform="rotate(79 531.242 128.427)"/>
      <ellipse id="ellipse1247" cx="597.74298" cy="129.045" opacity=".9" rx="1.95569" ry="1.7615" transform="rotate(87 597.743 129.045)"/>
      <ellipse id="ellipse1249" cx="643.40399" cy="124.795" opacity=".94" rx="1.39692" ry="1.25822" transform="rotate(-17 643.404 124.795)"/>
      <ellipse id="ellipse1251" cx="7.42518" cy="148.039" opacity=".9" rx="1.27719" ry="1.15037" transform="rotate(-76 7.42518 148.039)"/>
      <ellipse id="ellipse1253" cx="99.496101" cy="149.285" opacity=".77" rx="1.35701" ry="1.22227" transform="rotate(129 99.4961 149.285)"/>
      <ellipse id="ellipse1255" cx="189.086" cy="146.134" opacity=".99" rx="1.97565" ry="1.77948" transform="rotate(157 189.086 146.134)"/>
      <ellipse id="ellipse1257" cx="247.27699" cy="144.70399" opacity=".98" rx="2.2550299" ry="2.0311201" transform="rotate(21 247.277 144.704)"/>
      <ellipse id="ellipse1259" cx="321.026" cy="134.98" opacity=".72" rx="1.47675" ry="1.33012" transform="rotate(53 321.026 134.98)"/>
      <ellipse id="ellipse1261" cx="396.42999" cy="136.595" opacity=".95" rx="1.95569" ry="1.7615" transform="rotate(-156 396.43 136.595)"/>
      <ellipse id="ellipse1263" cx="450.80099" cy="147.858" opacity=".94" rx="2.3348601" ry="2.10302" transform="rotate(-132 450.801 147.858)"/>
      <ellipse id="ellipse1265" cx="524.12402" cy="147.00999" opacity=".82" rx="1.6763099" ry="1.50986" transform="rotate(21 524.124 147.01)"/>
      <ellipse id="ellipse1267" cx="583.09302" cy="143.24699" opacity=".94" rx="1.3769701" ry="1.24024" transform="rotate(-66 583.093 143.247)"/>
      <ellipse id="ellipse1269" cx="686.646" cy="142.403" opacity=".97" rx="1.25723" ry="1.1324" transform="rotate(14 686.646 142.403)"/>
      <ellipse id="ellipse1271" cx="47.905602" cy="155.35699" opacity=".77" rx="2.17521" ry="1.9592201" transform="rotate(-35 47.9056 155.357)"/>
      <ellipse id="ellipse1273" cx="110.105" cy="167.396" opacity=".71" rx="1.19736" ry="1.07847" transform="rotate(18 110.105 167.396)"/>
      <ellipse id="ellipse1275" cx="201.373" cy="152.76601" opacity=".76" rx="2.2550299" ry="2.0311201" transform="rotate(-66 201.373 152.766)"/>
      <ellipse id="ellipse1277" cx="216.064" cy="156.77299" opacity=".72" rx="1.6164401" ry="1.45594" transform="rotate(-48 216.064 156.773)"/>
      <ellipse id="ellipse1279" cx="315.849" cy="162.23199" opacity=".96" rx="1.23728" ry="1.1144201" transform="rotate(-34 315.849 162.232)"/>
      <ellipse id="ellipse1281" cx="406.09299" cy="169.924" opacity=".7" rx="1.9157799" ry="1.7255501" transform="rotate(117 406.093 169.924)"/>
      <ellipse id="ellipse1283" cx="485.84601" cy="157.36" opacity=".86" rx="1.89583" ry="1.70758" transform="rotate(178 485.846 157.36)"/>
      <ellipse id="ellipse1285" cx="544.35602" cy="162.97" opacity=".96" rx="2.2550299" ry="2.0311201" transform="rotate(-84 544.356 162.97)"/>
      <ellipse id="ellipse1287" cx="578.73999" cy="155.914" opacity=".78" rx="1.7361799" ry="1.56378" transform="rotate(13 578.74 155.914)"/>
      <ellipse id="ellipse1289" cx="661.495" cy="158.547" opacity=".95" rx="1.71622" ry="1.54581" transform="rotate(-81 661.495 158.547)"/>
      <ellipse id="ellipse1291" cx="66.593903" cy="175.058" opacity=".85" rx="2.3148999" ry="2.0850501" transform="rotate(37 66.5939 175.058)"/>
      <ellipse id="ellipse1293" cx="120.512" cy="187.79201" opacity=".93" rx="2.11534" ry="1.9053" transform="rotate(-3 120.512 187.792)"/>
      <ellipse id="ellipse1295" cx="194.345" cy="184.157" rx="1.47675" ry="1.33012" transform="rotate(-110 194.345 184.157)"/>
      <ellipse id="ellipse1297" cx="258.45001" cy="188.838" opacity=".9" rx="2.1352999" ry="1.92327" transform="rotate(57 258.45 188.838)"/>
      <ellipse id="ellipse1299" cx="337.603" cy="183.114" opacity=".79" rx="1.35701" ry="1.22227" transform="rotate(167 337.603 183.114)"/>
      <ellipse id="ellipse1301" cx="392.81299" cy="178.672" opacity=".85" rx="1.27719" ry="1.15037" transform="rotate(149 392.813 178.672)"/>
      <ellipse id="ellipse1303" cx="423.66599" cy="184.22501" opacity=".71" rx="1.8559099" ry="1.67163" transform="rotate(75 423.666 184.225)"/>
      <ellipse id="ellipse1305" cx="549.95398" cy="188.88699" opacity=".84" rx="1.59648" ry="1.43796" transform="rotate(141 549.954 188.887)"/>
      <ellipse id="ellipse1307" cx="610.60199" cy="187.549" opacity=".72" rx="1.39692" ry="1.25822" transform="rotate(121 610.602 187.549)"/>
      <ellipse id="ellipse1309" cx="694.97699" cy="178.644" opacity=".77" rx="1.97565" ry="1.77948" transform="rotate(42 694.977 178.644)"/>
    </g>
    <g id="Snowflake" opacity=".5">
      <g id="Snowflake6">
        <path id="path1333" fill="#ffffff" d="m258.344 143.756-1.904.308-1.502-1.058.228-2.293 1.682-.74 1.806.678.567-1.495-1.372-.514.507-1.373-1.495-.567-.679 1.805-1.681.741-1.836-1.341.179-1.799 1.497-1.225-1.018-1.236-1.129.925-.925-1.13-1.242 1.01 1.225 1.497-.179 1.799-2.105.948-1.502-1.059-.277-1.9-1.569.261.233 1.446-1.446.234.26 1.578 1.904-.309 1.503 1.058-.23 2.301-1.682.741-1.805-.679-.567 1.495 1.371.515-.514 1.363 1.495.568.679-1.806 1.682-.74 1.836 1.34-.18 1.8-1.497 1.225 1.018 1.235 1.13-.924.924 1.129 1.235-1.01-1.218-1.497.18-1.799 2.105-.955 1.502 1.058.309 1.904 1.537-.256-.234-1.447 1.447-.233-.253-1.577m-8.718-3.596 2.105-.955 1.875 1.353-.229 2.292-2.105.956-1.875-1.353z"/>
      </g>
      <g id="Snowflake5" clip-path="url(#clip2_22_811)">
        <path id="path1329" fill="#ffffff" d="m239.019 95.0719-1.741.8287-1.739-.5958-.422-2.2651 1.408-1.1815 1.923.1464.127-1.594-1.461-.1105.102-1.4594-1.594-.1264-.146 1.9233-1.408 1.1815-2.137-.7738-.331-1.7774 1.094-1.5952-1.323-.901-.826 1.2034-1.203-.8257-.91 1.3169 1.595 1.0945.331 1.7774-1.756 1.4985-1.738-.5958-.797-1.7476-1.434.6901.629 1.3232-1.324.6288.692 1.4418 1.742-.8288 1.738.5959.423 2.2729-1.407 1.1816-1.924-.1465-.126 1.594 1.461.1105-.112 1.4532 1.594.126.146-1.9231 1.408-1.1815 2.138.7738.33 1.7778-1.094 1.595 1.323.901.826-1.204 1.203.826.903-1.315-1.588-1.096-.33-1.7777 1.753-1.5064 1.739.5959.829 1.7417 1.403-.6764-.628-1.3232 1.323-.6288-.684-1.4432m-9.375-1.0131 1.753-1.5064 2.179.7743.422 2.265-1.754 1.5065-2.179-.7744z"/>
      </g>
      <g id="Snowflake4" clip-path="url(#clip1_22_811)">
        <path id="path1325" fill="#ffffff" d="m187.469 135.292-1.893-.366-1.046-1.511 1.004-2.074 1.834-.116 1.462 1.259 1.047-1.208-1.11-.956.948-1.113-1.208-1.048-1.259 1.461-1.834.116-1.262-1.891.788-1.627 1.828-.635-.531-1.51-1.379.479-.478-1.379-1.514.52.634 1.828-.788 1.627-2.302.165-1.046-1.511.395-1.88-1.564-.295-.278 1.438-1.439-.279-.298 1.571 1.893.366 1.046 1.511-1.008 2.081-1.834.116-1.461-1.259-1.047 1.208 1.11.956-.952 1.103 1.208 1.048 1.259-1.462 1.834-.116 1.262 1.891-.788 1.627-1.828.635.531 1.511 1.378-.479.479 1.378 1.507-.523-.627-1.824.788-1.627 2.305-.172 1.046 1.511-.366 1.893 1.531.289.279-1.438 1.439.279.305-1.568m-6.946-6.378 2.306-.172 1.294 1.916-1.004 2.073-2.306.173-1.294-1.916z"/>
      </g>
      <g id="Snowflake3">
        <path id="path1321" fill="#ffffff" d="m162.003 32.4221-2.106.6394-1.861-.9676-.091-2.6276 1.789-1.0943 2.145.4918.414-1.7773-1.63-.3728.363-1.6294-1.777-.4133-.492 2.1454-1.789 1.0944-2.281-1.2362-.071-2.062 1.506-1.6143-1.34-1.2414-1.137 1.2178-1.217-1.1361-1.251 1.3314 1.614 1.506.072 2.062-2.236 1.393-1.86-.9676-.603-2.1075-1.735.5353.484 1.6-1.6.4849.536 1.7444 2.106-.6395 1.861.9676.091 2.6368-1.789 1.0943-2.145-.4919-.413 1.7774 1.629.3727-.373 1.6207 1.778.4133.492-2.1455 1.789-1.0943 2.28 1.2362.072 2.0619-1.506 1.6143 1.34 1.2415 1.136-1.2178 1.218 1.1361 1.242-1.3312-1.605-1.5063-.072-2.0619 2.235-1.4022 1.861.9677.639 2.1061 1.699-.5248-.485-1.6 1.6-.4849-.526-1.7447m-10.408-2.7353 2.235-1.4021 2.327 1.2437.091 2.6276-2.235 1.4022-2.327-1.2438z"/>
      </g>
      <g id="Snowflake2" clip-path="url(#clip0_22_811)">
        <path id="path1313" fill="#ffffff" d="m44.816 127.76-2.0864 1.733-2.5758-.209-1.36-2.941 1.5086-2.098 2.672-.467-.3805-2.216-2.0292.355-.3662-2.024-2.2162.38.4672 2.672-1.5086 2.099-3.1817-.314-1.0672-2.308.9386-2.553-2.1158-.769-.7081 1.926-1.9263-.708-.7842 2.11 2.5536.939 1.0672 2.307-1.8727 2.651-2.5758-.209-1.6925-2.105-1.715 1.437 1.3157 1.586-1.5853 1.316 1.4423 1.725 2.0864-1.734 2.5758.21 1.3647 2.951-1.5086 2.098-2.6719.467.3804 2.216 2.0293-.355.3511 2.019 2.2163-.381-.4672-2.672 1.5086-2.098 3.1817.313 1.0672 2.308-.9386 2.554 2.1158.769.708-1.927 1.9264.709.7739-2.106-2.5433-.943-1.0672-2.308 1.868-2.661 2.5758.209 1.7333 2.087 1.6789-1.409-1.3158-1.585 1.5854-1.316zm-13.129 1.87 1.868-2.661 3.2375.3 1.36 2.941-1.8681 2.661-3.2374-.3z"/>
      </g>
      <g id="Snowflake1">
        <path id="path1317" fill="#ffffff" d="m44.2018 58.1671-1.4923.4809-1.3368-.6668-.0967-1.8703 1.2609-.8009 1.534.3244.2729-1.2708-1.1652-.2459.2393-1.1649-1.2708-.2729-.3245 1.534-1.2609.8009-1.6394-.8529-.0758-1.4677 1.0531-1.1679-.9695-.868-.7945.881-.881-.7944-.8749.9633 1.1679 1.0531.0759 1.4677-1.5752 1.0191-1.3368-.6667-.4549-1.4937-1.2294.4022.3646 1.1336-1.1337.3647.4025 1.2359 1.4924-.4808 1.3367.6667.097 1.8768-1.2609.801-1.5339-.3245-.273 1.2709 1.1653.2458-.2462 1.1587 1.2709.2729.3244-1.5339 1.2609-.801 1.6394.853.0759 1.4676-1.0532 1.1679.9695.8681.7945-.8811.881.7945.8684-.963-1.1614-1.0535-.0759-1.4677 1.5749-1.0255 1.3368.6667.4808 1.4923 1.2038-.3943-.3646-1.1337 1.1337-.3646zm-7.4457-1.8226 1.5749-1.0255 1.6722.8577.0966 1.8703-1.5748 1.0256-1.6723-.8577z"/>
      </g>
    </g>
  </g>
  <defs id="defs1434">
    <linearGradient id="linearGradient3895">
      <stop id="stop3893" offset="0" style="stop-color:#f55;stop-opacity:1"/>
    </linearGradient>
    <linearGradient id="paint0_linear_22_811" x1="-2.2565899" x2="706.71802" y1="186.18201" y2="-61.206402" gradientUnits="userSpaceOnUse">
      <stop id="stop1339" stop-color="#035B61"/>
      <stop id="stop1341" offset="1" stop-color="#C756BB"/>
    </linearGradient>
    <linearGradient id="paint1_linear_22_811" x1="-2.2565899" x2="706.71802" y1="186.18201" y2="-61.206402" gradientUnits="userSpaceOnUse">
      <stop id="stop1344" stop-color="#035B61"/>
      <stop id="stop1346" offset="1" stop-color="#C756BB"/>
    </linearGradient>
    <linearGradient id="paint2_linear_22_811" x1="-2.2565899" x2="706.71802" y1="186.18201" y2="-61.206402" gradientUnits="userSpaceOnUse">
      <stop id="stop1349" stop-color="#035B61"/>
      <stop id="stop1351" offset="1" stop-color="#C756BB"/>
    </linearGradient>
    <linearGradient id="paint3_linear_22_811" x1="-2.2565899" x2="706.71802" y1="186.18201" y2="-61.206402" gradientUnits="userSpaceOnUse">
      <stop id="stop1354" stop-color="#035B61"/>
      <stop id="stop1356" offset="1" stop-color="#C756BB"/>
    </linearGradient>
    <linearGradient id="paint4_linear_22_811" x1="-2.2565899" x2="706.71802" y1="186.18201" y2="-61.206402" gradientUnits="userSpaceOnUse">
      <stop id="stop1359" stop-color="#035B61"/>
      <stop id="stop1361" offset="1" stop-color="#C756BB"/>
    </linearGradient>
    <linearGradient id="paint5_linear_22_811" x1="-2.2565899" x2="706.71802" y1="186.18201" y2="-61.206402" gradientUnits="userSpaceOnUse">
      <stop id="stop1364" stop-color="#035B61"/>
      <stop id="stop1366" offset="1" stop-color="#C756BB"/>
    </linearGradient>
    <linearGradient id="paint6_linear_22_811" x1="-2.2565899" x2="706.71802" y1="186.18201" y2="-61.206402" gradientUnits="userSpaceOnUse">
      <stop id="stop1369" stop-color="#035B61"/>
      <stop id="stop1371" offset="1" stop-color="#C756BB"/>
    </linearGradient>
    <linearGradient id="paint7_linear_22_811" x1="-2.2565899" x2="706.71802" y1="186.18201" y2="-61.206402" gradientUnits="userSpaceOnUse">
      <stop id="stop1374" stop-color="#035B61"/>
      <stop id="stop1376" offset="1" stop-color="#C756BB"/>
    </linearGradient>
    <linearGradient id="paint8_linear_22_811" x1="-2.2565899" x2="706.71802" y1="186.18201" y2="-61.206402" gradientUnits="userSpaceOnUse">
      <stop id="stop1379" stop-color="#035B61"/>
      <stop id="stop1381" offset="1" stop-color="#C756BB"/>
    </linearGradient>
    <linearGradient id="paint9_linear_22_811" x1="-2.2565899" x2="706.71802" y1="186.18201" y2="-61.206402" gradientUnits="userSpaceOnUse">
      <stop id="stop1384" stop-color="#035B61"/>
      <stop id="stop1386" offset="1" stop-color="#C756BB"/>
    </linearGradient>
    <linearGradient id="paint10_linear_22_811" x1="-2.2565899" x2="706.71802" y1="186.18201" y2="-61.206402" gradientUnits="userSpaceOnUse">
      <stop id="stop1389" stop-color="#035B61"/>
      <stop id="stop1391" offset="1" stop-color="#C756BB"/>
    </linearGradient>
    <linearGradient id="paint11_linear_22_811" x1="-2.2565899" x2="706.71802" y1="186.18201" y2="-61.206402" gradientUnits="userSpaceOnUse">
      <stop id="stop1394" stop-color="#035B61"/>
      <stop id="stop1396" offset="1" stop-color="#C756BB"/>
    </linearGradient>
    <linearGradient id="paint12_linear_22_811" x1="364.405" x2="379.32199" y1="148.731" y2="148.403" gradientUnits="userSpaceOnUse">
      <stop id="stop1399" stop-color="#6CFED2"/>
      <stop id="stop1401" offset="1" stop-color="#00FFB2"/>
    </linearGradient>
    <linearGradient id="paint13_linear_22_811" x1="359.474" x2="339.95001" y1="167.286" y2="158.843" gradientUnits="userSpaceOnUse">
      <stop id="stop1404" stop-color="#5CEF7C"/>
      <stop id="stop1406" offset="1" stop-color="#A5FFB9"/>
    </linearGradient>
    <linearGradient id="paint14_linear_22_811" x1="382.18399" x2="357.65701" y1="172.12801" y2="173.37601" gradientUnits="userSpaceOnUse">
      <stop id="stop1409" stop-color="#35C2FF"/>
      <stop id="stop1411" offset="1" stop-color="#86DBFF"/>
    </linearGradient>
    <linearGradient id="paint15_linear_22_811" x1="740.98901" x2="391.91" y1="51.816601" y2="161.263" gradientUnits="userSpaceOnUse">
      <stop id="stop1414" stop-color="#1E5CFE"/>
      <stop id="stop1416" offset=".212573" stop-color="#6874FF"/>
      <stop id="stop1418" offset=".505208" stop-color="#F151FF"/>
      <stop id="stop1420" offset=".921875" stop-color="#FD6FA0" stop-opacity=".76"/>
      <stop id="stop1422" offset="1" stop-color="#FF758E" stop-opacity="0"/>
    </linearGradient>
    <linearGradient xlink:href="#paint0_linear_22_811" id="linearGradient1359" x1="-2.2565899" x2="706.71802" y1="186.18201" y2="-61.206402" gradientUnits="userSpaceOnUse"/>
    <linearGradient xlink:href="#paint0_linear_22_811" id="linearGradient1361" x1="-2.2565899" x2="706.71802" y1="186.18201" y2="-61.206402" gradientUnits="userSpaceOnUse"/>
    <linearGradient xlink:href="#paint0_linear_22_811" id="linearGradient1363" x1="-2.2565899" x2="706.71802" y1="186.18201" y2="-61.206402" gradientUnits="userSpaceOnUse"/>
    <linearGradient xlink:href="#paint0_linear_22_811" id="linearGradient1365" x1="-2.2565899" x2="706.71802" y1="186.18201" y2="-61.206402" gradientUnits="userSpaceOnUse"/>
    <linearGradient xlink:href="#paint0_linear_22_811" id="linearGradient1367" x1="-2.2565899" x2="706.71802" y1="186.18201" y2="-61.206402" gradientUnits="userSpaceOnUse"/>
    <linearGradient xlink:href="#paint0_linear_22_811" id="linearGradient1369" x1="-2.2565899" x2="706.71802" y1="186.18201" y2="-61.206402" gradientUnits="userSpaceOnUse"/>
    <linearGradient xlink:href="#paint0_linear_22_811" id="linearGradient12868" x1="-2.2565899" x2="706.71802" y1="186.18201" y2="-61.206402" gradientUnits="userSpaceOnUse"/>
    <clipPath id="clip0_22_811">
      <path id="rect1425" fill="#ffffff" d="M0 0h27v27H0z" transform="rotate(-24.8187 288.75725 23.036342)"/>
    </clipPath>
    <clipPath id="clip1_22_811">
      <path id="rect1428" fill="#ffffff" d="M0 0h19.1996v19.1996H0z" transform="rotate(25.8449 -168.45949 445.52303)"/>
    </clipPath>
    <clipPath id="clip2_22_811">
      <path id="rect1431" fill="#ffffff" d="M0 0h19.1996v19.1996H0z" transform="rotate(-10.5461 582.42062 -1151.7)"/>
    </clipPath>
    <mask id="fill_mask" maskUnits="userSpaceOnUse">
      <path id="rect8239" d="M0 0h693.1344v189.48712H0z" style="opacity:.99;fill:#fff;fill-opacity:1;stroke:none;stroke-width:4.95619;stroke-linejoin:miter;stroke-opacity:1;paint-order:normal"/>
    </mask>
  </defs>
</svg>
